HIERARCHY
ROOT Hips
{
    OFFSET   0.000000   0.000000   0.000000
    CHANNELS 6 Xposition Yposition Zposition Xrotation Yrotation Zrotation
    JOINT LeftUpLeg
    {
        OFFSET   0.078795   0.000000   0.000000
        CHANNELS 3 Xrotation Yrotation Zrotation
        JOINT LeftLeg
        {
            OFFSET   0.110662  -0.412997   0.000000
            CHANNELS 3 Xrotation Yrotation Zrotation
            JOINT LeftFoot
            {
                OFFSET   0.102152  -0.381236   0.000000
                CHANNELS 3 Xrotation Yrotation Zrotation
                JOINT LeftToeBase
                {
                    OFFSET   0.010345  -0.038609   0.149173
                    CHANNELS 3 Xrotation Yrotation Zrotation
                }
            }
        }
    }
    JOINT RightUpLeg
    {
        OFFSET  -0.078795   0.000000   0.000000
        CHANNELS 3 Xrotation Yrotation Zrotation
        JOINT RightLeg
        {
            OFFSET  -0.110662  -0.412997   0.000000
            CHANNELS 3 Xrotation Yrotation Zrotation
            JOINT RightFoot
            {
                OFFSET  -0.102152  -0.381236   0.000000
                CHANNELS 3 Xrotation Yrotation Zrotation
                JOINT RightToeBase
                {
                    OFFSET  -0.010345  -0.038609   0.149173
                    CHANNELS 3 Xrotation Yrotation Zrotation
                }
            }
        }
    }
    JOINT Spine
    {
        OFFSET   0.000000   0.001000   0.000000
        CHANNELS 3 Xrotation Yrotation Zrotation
        JOINT Spine1
        {
            OFFSET   0.000000   0.211086   0.000000
            CHANNELS 3 Xrotation Yrotation Zrotation
            JOINT Neck
            {
                OFFSET   0.000000   0.158868   0.000000
                CHANNELS 3 Xrotation Yrotation Zrotation
            }
            JOINT LeftShoulder
            {
                OFFSET   0.000000   0.158868   0.000000
                CHANNELS 3 Xrotation Yrotation Zrotation
                JOINT LeftArm
                {
                    OFFSET   0.189194  -0.000001   0.000000
                    CHANNELS 3 Xrotation Yrotation Zrotation
                    JOINT LeftForeArm
                    {
                        OFFSET   0.192813  -0.192815   0.000000
                        CHANNELS 3 Xrotation Yrotation Zrotation
                        JOINT LeftHand
                        {
                            OFFSET   0.182449  -0.182451   0.000000
                            CHANNELS 3 Xrotation Yrotation Zrotation
                        }
                    }
                }
            }
            JOINT RightShoulder
            {
                OFFSET   0.000000   0.158868   0.000000
                CHANNELS 3 Xrotation Yrotation Zrotation
                JOINT RightArm
                {
                    OFFSET  -0.189194  -0.000001   0.000000
                    CHANNELS 3 Xrotation Yrotation Zrotation
                    JOINT RightForeArm
                    {
                        OFFSET  -0.192813  -0.192815   0.000000
                        CHANNELS 3 Xrotation Yrotation Zrotation
                        JOINT RightHand
                        {
                            OFFSET  -0.182449  -0.182451   0.000000
                            CHANNELS 3 Xrotation Yrotation Zrotation
                        }
                    }
                }
            }
        }
    }
}
MOTION
Frames: 7
Frame Time:   0.016667
  1.872112   0.816432  -0.080030  40.465000 -77.848700  39.321800   1.092800  14.085000  -8.196900  19.078898   5.005450  -0.841689 -29.086809   0.518719 -32.633116  -4.559957  -1.220363  -0.048590 -31.212400 -14.266800   4.619300  47.159838 -11.115583   4.863991 -29.461588 -15.055891  -2.331294   2.585040  -0.692391   0.015622  -2.721700  -1.507500  -0.345900   1.427300  -2.424200   2.600100  21.390400  -0.299100   4.248900  20.407600  -7.146400  25.268100  -8.683700 -31.698700 -50.363900 -35.982682 -30.435799 -10.097083  12.030779   9.287081 -14.306455  17.093000  -4.162000 -16.495600   0.533000  -1.032500  41.372700 -32.874589  28.493015   8.567762 -30.183231 -13.963123  23.323105
  1.880144   0.813895  -0.077173  38.844100 -76.960800  37.984900   0.459800  12.924700  -8.692600  19.158714   5.025502  -0.848666 -30.290618   0.163845 -32.960584  -4.159607  -1.113444  -0.040436 -34.106800 -13.296600   3.736000  50.936418 -11.752640   5.612936 -28.171112 -17.110635  -2.566101   1.440604  -0.385962   0.004852  -2.540200  -1.280100  -0.535900   1.591800  -2.197200   2.341700  21.321600  -0.646200   4.430300  20.594500  -7.410800  25.152900  -8.555100 -31.481900 -49.899100 -36.017789 -30.456908 -10.114873   9.997645  11.151208 -14.667751  17.156800  -3.869100 -16.374800  -0.373600  -1.126000  41.853200 -33.177430  28.688777   8.712688 -29.156743 -11.577404  22.422491
  1.887789   0.811540  -0.074132  40.965700 -76.544100  40.606500  -0.232500  12.249000  -9.699700  19.090286   5.008312  -0.842682 -31.526757   0.411513 -32.962947  -3.706822  -0.992448  -0.032116 -37.740300 -11.663500   3.031100  55.009717 -12.381030   6.464826 -26.246911 -19.279339  -3.008784   0.442201  -0.118486   0.000457  -2.527100  -0.879100  -0.821600   1.477700  -1.805800   1.912200  21.157500  -0.635000   4.411700  20.507800  -7.201600  24.881100  -7.998400 -30.349700 -49.699300 -36.378585 -30.672774 -10.298344   8.456513  12.109809 -15.902618  17.166100  -3.251600 -16.601900  -1.114100  -0.833600  42.365400 -33.634005  28.981265   8.932890 -27.895635  -9.326458  21.714104
  1.893461   0.810105  -0.071951  41.600900 -76.498100  41.623600  -1.213800  12.017900 -10.234300  20.441029   5.346136  -0.964575 -32.246965   0.414049 -32.666424  -3.600732  -0.964087  -0.030305 -40.720200 -10.869800   2.553100  58.410508 -12.857242   7.208008 -24.627032 -20.942279  -4.418781   0.624473  -0.167323   0.000912  -2.266600  -0.545700  -1.147600   1.683900  -1.469900   1.604000  20.964400  -0.628700   4.424500  20.548600  -6.723900  24.598200  -7.710400 -28.953200 -49.611500 -36.930843 -30.999413 -10.581425   7.367723  12.782339 -16.263345  16.986300  -2.579400 -16.652000  -1.777500  -0.194500  42.542000 -34.153122  29.309959   9.185719 -26.760213  -7.882569  21.555379
  1.897845   0.809544  -0.071051  41.464500 -76.108200  41.591600  -2.830400  11.915000 -10.165500  22.638432   5.888524  -1.179694 -32.707159  -0.074488 -32.514215  -3.465272  -0.927870  -0.028068 -43.524500 -11.225200   2.121600  60.808910 -13.165847   7.748079 -23.448140 -21.602962  -7.824007   1.595256  -0.427384   0.005950  -2.017400  -0.409200  -1.352800   1.680700  -1.329600   1.428400  20.884100  -0.564900   4.375000  20.642200  -6.223200  24.398200  -7.491300 -27.747100 -49.562200 -37.605671 -31.392363 -10.930967   6.996283  12.142806 -14.686197  16.906500  -2.182100 -16.604800  -2.494500   0.792800  42.657700 -34.811602  29.720999   9.510129 -25.637774  -7.396661  21.109773
  1.900342   0.809043  -0.070145  39.837800 -75.535600  39.733500  -3.978600  11.152500  -9.845800  24.288358   6.289487  -1.354720 -33.140425  -0.267830 -32.469415  -3.615418  -0.968014  -0.030552 -45.415300 -11.908100   1.660300  61.778139 -13.284058   7.969819 -22.207206 -19.943596  -6.977242   1.879547  -0.503520   0.008260  -1.852500  -0.368800  -1.194800   1.808800  -1.286700   1.452200  20.930200  -0.438600   4.148400  20.782900  -6.003600  24.321500  -7.490400 -26.868600 -49.616800 -38.263642 -31.768982 -11.275551   6.271402  11.595354 -13.956128  16.831600  -2.130700 -16.869900  -3.051900   1.506600  43.027500 -35.477839  30.130194   9.842503 -24.927541  -6.958854  21.201125
  1.901904   0.808713  -0.069091  39.282900 -74.829200  38.600800  -4.965400  10.218100  -9.359900  25.177322   6.503147  -1.453757 -33.641672  -0.182343 -32.136754  -3.578606  -0.958172  -0.029933 -46.981200 -12.708800   1.387000  60.953995 -13.183781   7.781147 -20.268565 -14.546837  -3.696348   2.145103  -0.574625   0.010758  -1.804000  -0.192700  -0.710900   1.617800  -1.117900   1.566500  21.112800  -0.551600   4.109300  20.751800  -6.212100  24.318200  -7.329100 -26.306400 -49.777200 -38.817171 -32.080864 -11.568264   5.648347  11.210270 -12.886796  16.934700  -2.363000 -17.021400  -3.303600   2.023200  43.195400 -36.567204  30.784848  10.394723 -24.524620  -6.859423  21.388046
